<svg width="31" height="33" viewBox="0 0 31 33" fill="none" xmlns="http://www.w3.org/2000/svg">
<path d="M16.1565 7.63201C16.1565 3.56277 19.4552 0.264038 23.5245 0.264038H30.8924V7.63201C30.8924 11.7012 27.5937 15 23.5245 15C19.4552 15 16.1565 11.7012 16.1565 7.63201Z" fill="#FF6D35"/>
<path d="M23.5242 32.6771C19.455 32.6771 16.1562 29.3784 16.1562 25.3091V17.9412H23.5242C27.5934 17.9412 30.8922 21.2399 30.8922 25.3091C30.8922 29.3784 27.5934 32.6771 23.5242 32.6771Z" fill="#5CC97B"/>
<path d="M13.8347 15.6522C13.8347 7.47539 7.70847 0.846924 0.151367 0.846924V25.0214C0.151367 29.1096 3.21448 32.424 6.99315 32.424C10.7717 32.424 13.8347 29.1096 13.8347 25.0214V15.6522Z" fill="#3D96F4"/>
</svg>
